<svg xmlns="http://www.w3.org/2000/svg" viewBox="0 0 64 64">
  <!-- é˜¿æ–° - æ–°èžç·¨è¼¯ ðŸ“° åƒç´ é¢¨æ ¼ -->
  <!-- åƒè€ƒï¼šè—é«®æ½®ç”· + æ ¼å­å¸½T + å¹³æ¿ + BREAKING! -->
  
  <!-- èƒŒæ™¯ -->
  <rect width="64" height="64" fill="#e8e8e8"/>
  
  <!-- ç‰†ä¸Šæ–°èžå‰ªå ± -->
  <rect x="46" y="2" width="14" height="10" rx="1" fill="#ffffff" stroke="#c0c0c0" stroke-width="1"/>
  <rect x="48" y="4" width="10" height="2" fill="#4a8090"/>
  <rect x="48" y="7" width="8" height="1" fill="#a0a0a0"/>
  <rect x="48" y="9" width="6" height="1" fill="#a0a0a0"/>
  
  <!-- å¦ä¸€å¼µå‰ªå ± -->
  <rect x="46" y="14" width="12" height="8" rx="1" fill="#f8f8f0" stroke="#c0c0c0" stroke-width="1"/>
  <text x="48" y="19" font-size="4" fill="#333" font-weight="bold">NEWS</text>
  
  <!-- é ­é«® - è—è‰²ç¿¹èµ·æœ‰åž‹ -->
  <ellipse cx="28" cy="26" rx="16" ry="14" fill="#4a7888"/>
  <!-- ç¿¹èµ·çš„é«®å°¾ -->
  <path d="M16 20 Q12 14 18 10 Q22 14 20 22" fill="#4a7888"/>
  <path d="M24 16 Q26 8 32 12 Q30 18 28 20" fill="#5a8898"/>
  <path d="M34 14 Q40 6 44 14 Q40 16 36 18" fill="#4a7888"/>
  <path d="M40 18 Q48 12 46 22 Q42 20 40 24" fill="#5a8898"/>
  <!-- é«®çµ²é«˜å…‰ -->
  <path d="M20 18 Q24 14 28 18" stroke="#6a98a8" stroke-width="2" fill="none"/>
  <path d="M32 14 Q36 10 40 16" stroke="#6a98a8" stroke-width="2" fill="none"/>
  
  <!-- è€³æœµ -->
  <ellipse cx="12" cy="36" rx="3" ry="4" fill="#d4a060"/>
  
  <!-- è‡‰ - å°éº¥è†šè‰² -->
  <ellipse cx="28" cy="36" rx="14" ry="12" fill="#e0b070"/>
  
  <!-- çœ¼ç› - èˆˆå¥®ç™¼äº® -->
  <ellipse cx="22" cy="34" rx="4.5" ry="5" fill="#ffffff"/>
  <ellipse cx="34" cy="34" rx="4.5" ry="5" fill="#ffffff"/>
  <!-- è—ç°è‰²çž³å­” -->
  <ellipse cx="23" cy="35" rx="3" ry="3.5" fill="#5a8898"/>
  <ellipse cx="35" cy="35" rx="3" ry="3.5" fill="#5a8898"/>
  <!-- åå­—é«˜å…‰ï¼ˆèˆˆå¥®ï¼‰ -->
  <path d="M24 33 L24 35 M23 34 L25 34" stroke="#ffffff" stroke-width="1.5"/>
  <path d="M36 33 L36 35 M35 34 L37 34" stroke="#ffffff" stroke-width="1.5"/>
  <!-- å°é«˜å…‰ -->
  <circle cx="21" cy="33" r="1" fill="#ffffff"/>
  <circle cx="33" cy="33" r="1" fill="#ffffff"/>
  
  <!-- çœ‰æ¯› - èˆˆå¥®ä¸Šæš -->
  <path d="M18 28 Q22 25 26 28" stroke="#3a5a68" stroke-width="2" fill="none" stroke-linecap="round"/>
  <path d="M30 28 Q34 25 38 28" stroke="#3a5a68" stroke-width="2" fill="none" stroke-linecap="round"/>
  
  <!-- å˜´å·´ - é–‹å¿ƒé©šå–œ -->
  <ellipse cx="28" cy="44" rx="4" ry="3" fill="#c08060"/>
  <path d="M25 43 Q28 46 31 43" fill="#ffffff"/>
  
  <!-- BREAKING! å°è©±æ³¡æ³¡ -->
  <rect x="40" y="26" width="22" height="10" rx="2" fill="#ffffff" stroke="#333" stroke-width="1"/>
  <polygon points="40,32 36,36 40,34" fill="#ffffff" stroke="#333" stroke-width="1"/>
  <text x="43" y="33" font-size="5" font-weight="bold" fill="#333">BREAKING!</text>
  
  <!-- ç¶ è‰²æ ¼å­å¸½T -->
  <path d="M8 52 Q18 46 28 46 Q38 46 48 52 L52 64 L4 64 Z" fill="#4a8060"/>
  <!-- æ ¼å­ç´‹è·¯ -->
  <path d="M12 52 L16 64" stroke="#6aa080" stroke-width="2"/>
  <path d="M20 50 L24 64" stroke="#6aa080" stroke-width="2"/>
  <path d="M28 48 L32 64" stroke="#6aa080" stroke-width="2"/>
  <path d="M36 50 L40 64" stroke="#6aa080" stroke-width="2"/>
  <path d="M44 52 L48 64" stroke="#6aa080" stroke-width="2"/>
  <!-- æ©«å‘æ ¼ç´‹ -->
  <path d="M8 56 Q28 52 48 56" stroke="#8ac0a0" stroke-width="1.5" fill="none"/>
  <path d="M6 60 Q28 56 50 60" stroke="#8ac0a0" stroke-width="1.5" fill="none"/>
  
  <!-- å¸½Tå¸½å­é‚Šç·£ -->
  <path d="M14 50 Q20 48 28 48 Q36 48 42 50" stroke="#3a6850" stroke-width="2" fill="none"/>
  
  <!-- å…§æ­æ·ºè‰²Tæ¤ -->
  <path d="M22 48 L28 54 L34 48" fill="#e8e8d8"/>
  
  <!-- æ‰‹æŒå¹³æ¿ ðŸ“± -->
  <rect x="48" y="44" width="12" height="16" rx="1" fill="#333"/>
  <rect x="49" y="45" width="10" height="13" fill="#60c0f0"/>
  <!-- å¹³æ¿ç™¼å…‰æ•ˆæžœ -->
  <rect x="49" y="45" width="10" height="13" fill="#ffffff" opacity="0.3"/>
  <!-- å¹³æ¿å…§å®¹ -->
  <rect x="50" y="47" width="8" height="2" fill="#ffffff"/>
  <rect x="50" y="50" width="6" height="1" fill="#ffffff" opacity="0.7"/>
  <rect x="50" y="52" width="7" height="1" fill="#ffffff" opacity="0.7"/>
  
  <!-- æ‰‹ -->
  <ellipse cx="52" cy="58" rx="4" ry="3" fill="#e0b070"/>
</svg>
