<svg xmlns="http://www.w3.org/2000/svg" viewBox="0 0 64 64">
  <!-- Lucy - ç¸½æŒ‡æ® ðŸ‘‘ åƒç´ é¢¨æ ¼å¯æ„›å¥³å­© -->
  <!-- åƒè€ƒï¼šè–°è¡£è‰ç´«é«® + æ˜Ÿæ˜Ÿé«®é£¾ + è€³æ©Ÿ + è–„è·ç¶ è¥¿è£ -->
  
  <!-- èƒŒæ™¯ -->
  <rect width="64" height="64" fill="#f8f4f0"/>
  
  <!-- é ­é«® - è–°è¡£è‰ç´«è‰²æ¼¸å±¤ -->
  <ellipse cx="32" cy="28" rx="20" ry="18" fill="#c8b8e8"/>
  <!-- é«®çµ²å±¤æ¬¡ -->
  <ellipse cx="32" cy="26" rx="18" ry="16" fill="#d4c8f0"/>
  <path d="M14 30 Q12 24 16 18 Q20 12 32 10 Q44 12 48 18 Q52 24 50 30" fill="#c8b8e8"/>
  <!-- ç€æµ· -->
  <path d="M16 28 Q20 22 28 24 Q32 20 36 24 Q44 22 48 28 L46 32 Q40 26 32 28 Q24 26 18 32 Z" fill="#d4c8f0"/>
  <!-- é«®çµ²é«˜å…‰ -->
  <path d="M20 20 Q24 16 30 18" stroke="#e8e0f8" stroke-width="2" fill="none" stroke-linecap="round"/>
  <path d="M34 16 Q38 14 42 18" stroke="#e8e0f8" stroke-width="2" fill="none" stroke-linecap="round"/>
  <!-- é«®å°¾ -->
  <ellipse cx="18" cy="40" rx="6" ry="10" fill="#c8b8e8"/>
  <ellipse cx="46" cy="40" rx="6" ry="10" fill="#c8b8e8"/>
  
  <!-- è‡‰ -->
  <ellipse cx="32" cy="36" rx="14" ry="12" fill="#ffeee6"/>
  
  <!-- çœ¼ç› - å¤§è€Œå¯æ„› -->
  <ellipse cx="26" cy="34" rx="5" ry="5.5" fill="#ffffff"/>
  <ellipse cx="38" cy="34" rx="5" ry="5.5" fill="#ffffff"/>
  <!-- æ£•è‰²çž³å­” -->
  <ellipse cx="27" cy="35" rx="3.5" ry="4" fill="#8b6914"/>
  <ellipse cx="39" cy="35" rx="3.5" ry="4" fill="#8b6914"/>
  <!-- çž³å­”æ·±è‰² -->
  <ellipse cx="27" cy="36" rx="2" ry="2.5" fill="#5a4510"/>
  <ellipse cx="39" cy="36" rx="2" ry="2.5" fill="#5a4510"/>
  <!-- çœ¼ç›é«˜å…‰ -->
  <circle cx="28.5" cy="33" r="1.5" fill="#ffffff"/>
  <circle cx="40.5" cy="33" r="1.5" fill="#ffffff"/>
  <circle cx="26" cy="36" r="0.8" fill="#ffffff"/>
  <circle cx="38" cy="36" r="0.8" fill="#ffffff"/>
  
  <!-- çœ‰æ¯› -->
  <path d="M23 28 Q26 26 29 28" stroke="#9080a0" stroke-width="1.5" fill="none" stroke-linecap="round"/>
  <path d="M35 28 Q38 26 41 28" stroke="#9080a0" stroke-width="1.5" fill="none" stroke-linecap="round"/>
  
  <!-- è…®ç´… -->
  <ellipse cx="20" cy="40" rx="3" ry="2" fill="#ffb8b8" opacity="0.7"/>
  <ellipse cx="44" cy="40" rx="3" ry="2" fill="#ffb8b8" opacity="0.7"/>
  
  <!-- é¼»å­ -->
  <ellipse cx="32" cy="40" rx="1" ry="0.5" fill="#f0d0c0"/>
  
  <!-- å˜´å·´ - å¾®ç¬‘ -->
  <path d="M29 44 Q32 47 35 44" stroke="#e08080" stroke-width="1.5" fill="none" stroke-linecap="round"/>
  
  <!-- æ˜Ÿæ˜Ÿé«®é£¾ â­ -->
  <polygon points="48,18 50,22 54,22 51,25 52,29 48,26 44,29 45,25 42,22 46,22" fill="#ffd700"/>
  <polygon points="48,20 49,22 51,22 49.5,24 50,26 48,24.5 46,26 46.5,24 45,22 47,22" fill="#ffec8b"/>
  
  <!-- è€³æ©Ÿ ðŸŽ§ -->
  <path d="M12 34 Q10 28 14 24" stroke="#40c0b0" stroke-width="3" fill="none" stroke-linecap="round"/>
  <ellipse cx="12" cy="36" rx="3" ry="4" fill="#40c0b0"/>
  <ellipse cx="12" cy="36" rx="2" ry="3" fill="#60d8c8"/>
  <!-- éº¥å…‹é¢¨ -->
  <path d="M12 40 Q14 44 18 46" stroke="#40c0b0" stroke-width="2" fill="none" stroke-linecap="round"/>
  <ellipse cx="18" cy="47" rx="2" ry="1.5" fill="#40c0b0"/>
  
  <!-- è–„è·ç¶ è¥¿è£å¤–å¥— -->
  <path d="M16 52 Q20 48 32 48 Q44 48 48 52 L50 64 L14 64 Z" fill="#98e8d8"/>
  <!-- è¥¿è£ç¿»é ˜ -->
  <path d="M24 48 L28 54 L32 48" fill="#80d0c0"/>
  <path d="M40 48 L36 54 L32 48" fill="#80d0c0"/>
  
  <!-- ç²‰æ©˜è‰²è¥¯è¡« -->
  <path d="M28 48 L32 56 L36 48" fill="#ffb090"/>
  <!-- é ˜å£ -->
  <path d="M30 48 L32 52 L34 48" fill="#ffc8b0"/>
  
  <!-- åƒç´ é¢¨æ ¼é‚Šæ¡†é»žç¶´ -->
  <rect x="2" y="2" width="2" height="2" fill="#c8b8e8" opacity="0.5"/>
  <rect x="60" y="2" width="2" height="2" fill="#c8b8e8" opacity="0.5"/>
  <rect x="2" y="60" width="2" height="2" fill="#98e8d8" opacity="0.5"/>
  <rect x="60" y="60" width="2" height="2" fill="#98e8d8" opacity="0.5"/>
</svg>
