<svg xmlns="http://www.w3.org/2000/svg" viewBox="0 0 64 64">
  <!-- èžƒèŸ¹ - ç¤¾ç¾¤å°ç·¨ ðŸ¦€ åƒç´ é¢¨æ ¼ -->
  <!-- åƒè€ƒï¼šç²‰é«®æ½®å¦¹ + ç´«è‰²å¤–å¥— + è‡ªæ‹ + ç¤¾ç¾¤å…ƒç´  -->
  
  <!-- èƒŒæ™¯ -->
  <rect width="64" height="64" fill="#ffffff"/>
  
  <!-- ç¤¾ç¾¤å…ƒç´ æ¼‚æµ® - æ„›å¿ƒ -->
  <path d="M6 12 Q6 8 10 8 Q14 8 14 12 Q14 16 10 20 Q6 16 6 12" fill="#ff4060"/>
  <rect x="8" y="10" width="2" height="2" fill="#ffffff" opacity="0.5"/>
  
  <path d="M4 28 Q4 26 6 26 Q8 26 8 28 Q8 30 6 32 Q4 30 4 28" fill="#ff4060"/>
  
  <path d="M56 38 Q56 36 58 36 Q60 36 60 38 Q60 40 58 42 Q56 40 56 38" fill="#ff6080"/>
  
  <path d="M52 52 Q52 48 56 48 Q60 48 60 52 Q60 56 56 60 Q52 56 52 52" fill="#ff4060"/>
  <rect x="54" y="50" width="2" height="2" fill="#ffffff" opacity="0.5"/>
  
  <!-- æ˜Ÿæ˜Ÿ -->
  <polygon points="18,6 19,9 22,9 20,11 21,14 18,12 15,14 16,11 14,9 17,9" fill="#ffd700"/>
  <polygon points="56,8 57,10 59,10 57.5,11.5 58,14 56,12.5 54,14 54.5,11.5 53,10 55,10" fill="#ffd700"/>
  
  <!-- è®š ðŸ‘ -->
  <rect x="2" y="36" width="10" height="8" rx="1" fill="#4080ff"/>
  <ellipse cx="7" cy="38" rx="3" ry="2" fill="#f0d0b8"/>
  <rect x="5" y="40" width="4" height="3" fill="#f0d0b8"/>
  
  <rect x="54" y="18" width="8" height="6" rx="1" fill="#4080ff"/>
  <ellipse cx="58" cy="20" rx="2" ry="1.5" fill="#f0d0b8"/>
  <rect x="56" y="21" width="3" height="2" fill="#f0d0b8"/>
  
  <!-- é ­é«® - ç²‰ç´…è‰²é•·é«® -->
  <ellipse cx="30" cy="22" rx="18" ry="16" fill="#ff8090"/>
  <!-- é«®çµ²å±¤æ¬¡ -->
  <path d="M14 24 Q12 18 16 12 Q22 8 30 8 Q38 8 44 12 Q48 18 46 24" fill="#ff9098"/>
  <!-- é•·é«®åž‚ä¸‹ -->
  <ellipse cx="16" cy="36" rx="6" ry="16" fill="#ff8090"/>
  <ellipse cx="44" cy="36" rx="6" ry="16" fill="#ff8090"/>
  <!-- é«®çµ²ç´‹ç† -->
  <path d="M18 14 Q24 10 30 14" stroke="#ffa0a8" stroke-width="2" fill="none"/>
  <path d="M30 10 Q36 8 42 14" stroke="#ffa0a8" stroke-width="2" fill="none"/>
  <path d="M14 28 L14 44" stroke="#ffa0a8" stroke-width="1.5"/>
  <path d="M18 26 L18 46" stroke="#ff7080" stroke-width="1"/>
  <path d="M42 26 L42 46" stroke="#ff7080" stroke-width="1"/>
  <path d="M46 28 L46 44" stroke="#ffa0a8" stroke-width="1.5"/>
  
  <!-- è‡‰ -->
  <ellipse cx="30" cy="32" rx="12" ry="10" fill="#ffe8e0"/>
  
  <!-- çœ¼ç› - è‡ªä¿¡åªšçœ¼ -->
  <ellipse cx="25" cy="30" rx="3.5" ry="3" fill="#ffffff"/>
  <ellipse cx="35" cy="30" rx="3.5" ry="3" fill="#ffffff"/>
  <!-- æ£•è‰²çž³å­” -->
  <ellipse cx="26" cy="31" rx="2" ry="2.2" fill="#6a5040"/>
  <ellipse cx="36" cy="31" rx="2" ry="2.2" fill="#6a5040"/>
  <!-- é«˜å…‰ -->
  <circle cx="27" cy="30" r="0.8" fill="#ffffff"/>
  <circle cx="37" cy="30" r="0.8" fill="#ffffff"/>
  <!-- ç«æ¯› -->
  <path d="M22 28 L21 26" stroke="#4a3830" stroke-width="1"/>
  <path d="M24 27 L23 25" stroke="#4a3830" stroke-width="1"/>
  <path d="M36 27 L37 25" stroke="#4a3830" stroke-width="1"/>
  <path d="M38 28 L39 26" stroke="#4a3830" stroke-width="1"/>
  
  <!-- çœ‰æ¯› -->
  <path d="M22 26 Q25 24 28 26" stroke="#a08070" stroke-width="1.5" fill="none"/>
  <path d="M32 26 Q35 24 38 26" stroke="#a08070" stroke-width="1.5" fill="none"/>
  
  <!-- è…®ç´… -->
  <ellipse cx="20" cy="34" rx="3" ry="2" fill="#ffb0b0" opacity="0.6"/>
  <ellipse cx="40" cy="34" rx="3" ry="2" fill="#ffb0b0" opacity="0.6"/>
  
  <!-- å˜´å·´ - é–‹å¿ƒç¬‘ -->
  <path d="M26 38 Q30 42 34 38" stroke="#e08080" stroke-width="1.5" fill="none"/>
  <path d="M27 39 Q30 41 33 39" fill="#ffffff"/>
  
  <!-- ç´«è‰²å¤–å¥— -->
  <path d="M12 50 Q20 44 30 44 Q40 44 48 50 L52 64 L8 64 Z" fill="#8060c0"/>
  <!-- å¤–å¥—é™°å½± -->
  <path d="M14 52 L14 62" stroke="#7050a0" stroke-width="2"/>
  <path d="M46 52 L46 62" stroke="#7050a0" stroke-width="2"/>
  
  <!-- åœ–æ¡ˆTæ¤ -->
  <path d="M24 46 L30 50 L36 46" fill="#f8e8f0"/>
  <!-- Tæ¤åœ–æ¡ˆ - å±±æ™¯æ—¥è½ -->
  <rect x="26" y="52" width="8" height="6" fill="#ffe0f0"/>
  <polygon points="27,57 30,54 33,57" fill="#60c0c0"/>
  <circle cx="32" cy="54" r="1.5" fill="#ffd040"/>
  
  <!-- æ‰‹æ‹¿æ‰‹æ©Ÿè‡ªæ‹ -->
  <ellipse cx="48" cy="40" rx="4" ry="3" fill="#ffe0d8"/>
  <!-- æ‰‹æ©Ÿ -->
  <rect x="46" y="28" width="8" height="14" rx="1" fill="#9070c0"/>
  <!-- æ‰‹æ©Ÿæ¼¸å±¤æ•ˆæžœ -->
  <rect x="47" y="29" width="6" height="11" fill="#a080d0"/>
  <rect x="47" y="29" width="3" height="11" fill="#b090e0" opacity="0.5"/>
  <!-- é–ƒå…‰æ•ˆæžœ -->
  <path d="M54 26 L56 24 M56 28 L58 26 M54 32 L56 34" stroke="#ffd700" stroke-width="1.5"/>
  <circle cx="56" cy="28" r="2" fill="#ffffff" opacity="0.6"/>
</svg>
