<svg xmlns="http://www.w3.org/2000/svg" viewBox="0 0 64 64">
  <!-- å°ç®¡ - ç”Ÿæ´»ç®¡å®¶ ðŸ“‹ åƒç´ é¢¨æ ¼ -->
  <!-- åƒè€ƒï¼šæ£•é«®æˆç†Ÿå§å§ + ç±³è‰²é–‹è¡« + å‰ªè²¼æ¿ + è¡Œäº‹æ›† -->
  
  <!-- èƒŒæ™¯ -->
  <rect width="64" height="64" fill="#faf8f4"/>
  
  <!-- æ–‡ä»¶å¤¾ï¼ˆå·¦ä¸Šï¼‰ -->
  <rect x="2" y="4" width="10" height="8" fill="#a0b8d0"/>
  <rect x="3" y="6" width="8" height="5" fill="#b8c8e0"/>
  <rect x="2" y="14" width="10" height="8" fill="#d4b888"/>
  <rect x="3" y="16" width="8" height="5" fill="#e8d0a0"/>
  
  <!-- è³‡æ–™å¤¾æž¶ï¼ˆå·¦ä¸‹ï¼‰ -->
  <rect x="2" y="44" width="4" height="16" fill="#e8d8c0"/>
  <rect x="7" y="46" width="4" height="14" fill="#80a080"/>
  <rect x="12" y="44" width="4" height="16" fill="#d4a888"/>
  <rect x="2" y="58" width="14" height="2" fill="#c8b8a0"/>
  <!-- å°ç›†æ ½ -->
  <rect x="4" y="40" width="4" height="3" fill="#c08060"/>
  <ellipse cx="6" cy="38" rx="3" ry="3" fill="#60a060"/>
  <path d="M5 38 L6 35 L7 38" fill="#70b070"/>
  
  <!-- æ™‚é˜ï¼ˆå³ä¸Šï¼‰ -->
  <circle cx="50" cy="10" r="7" fill="#f8f4e8" stroke="#8a7a60" stroke-width="1.5"/>
  <circle cx="50" cy="10" r="5.5" fill="none" stroke="#d0c8b8" stroke-width="0.5"/>
  <!-- æ™‚é˜åˆ»åº¦ -->
  <line x1="50" y1="4" x2="50" y2="5" stroke="#6a5a40" stroke-width="1"/>
  <line x1="50" y1="15" x2="50" y2="16" stroke="#6a5a40" stroke-width="1"/>
  <line x1="44" y1="10" x2="45" y2="10" stroke="#6a5a40" stroke-width="1"/>
  <line x1="55" y1="10" x2="56" y2="10" stroke="#6a5a40" stroke-width="1"/>
  <!-- æ™‚é‡åˆ†é‡ -->
  <line x1="50" y1="10" x2="50" y2="6" stroke="#4a4030" stroke-width="1.5"/>
  <line x1="50" y1="10" x2="53" y2="12" stroke="#4a4030" stroke-width="1"/>
  
  <!-- å¾…è¾¦æ¸…å–® -->
  <rect x="44" y="20" width="10" height="12" fill="#f8f8f0" stroke="#c0b8a0" stroke-width="1"/>
  <rect x="45" y="22" width="2" height="2" fill="#60c060"/>
  <path d="M45.5 23 L46 23.5 L47 22.5" stroke="#ffffff" stroke-width="0.8"/>
  <rect x="48" y="22" width="5" height="1" fill="#a0a090"/>
  <rect x="45" y="25" width="2" height="2" fill="#60c060"/>
  <rect x="48" y="25" width="4" height="1" fill="#a0a090"/>
  <rect x="45" y="28" width="2" height="2" fill="#e0e0d8"/>
  <rect x="48" y="28" width="5" height="1" fill="#a0a090"/>
  
  <!-- æœˆæ›† -->
  <rect x="52" y="34" width="10" height="10" fill="#f8f8f0" stroke="#c0b8a0" stroke-width="1"/>
  <rect x="52" y="34" width="10" height="2" fill="#e08080"/>
  <!-- æ—¥æœŸæ ¼å­ -->
  <rect x="53" y="37" width="2" height="2" fill="#f0f0e8" stroke="#d0d0c8" stroke-width="0.3"/>
  <rect x="56" y="37" width="2" height="2" fill="#f0f0e8" stroke="#d0d0c8" stroke-width="0.3"/>
  <rect x="59" y="37" width="2" height="2" fill="#f0f0e8" stroke="#d0d0c8" stroke-width="0.3"/>
  <rect x="53" y="40" width="2" height="2" fill="#ffd0d0" stroke="#d0d0c8" stroke-width="0.3"/>
  <rect x="56" y="40" width="2" height="2" fill="#f0f0e8" stroke="#d0d0c8" stroke-width="0.3"/>
  
  <!-- åŠç±ƒæ¤ç‰© -->
  <line x1="60" y1="0" x2="60" y2="20" stroke="#a08060" stroke-width="1"/>
  <ellipse cx="60" cy="22" rx="3" ry="2" fill="#c08060"/>
  <ellipse cx="60" cy="20" rx="4" ry="3" fill="#50a050"/>
  <path d="M58 18 L56 14" stroke="#60b060" stroke-width="1.5"/>
  <path d="M62 18 L64 14" stroke="#60b060" stroke-width="1.5"/>
  <ellipse cx="56" cy="14" rx="2" ry="1.5" fill="#50a050"/>
  
  <!-- å¤§ç›†æ ½ï¼ˆå³ä¸‹ï¼‰ -->
  <rect x="54" y="56" width="8" height="8" fill="#c08060"/>
  <ellipse cx="58" cy="54" rx="5" ry="6" fill="#408040"/>
  <ellipse cx="56" cy="52" rx="3" ry="4" fill="#50a050"/>
  <ellipse cx="60" cy="50" rx="3" ry="4" fill="#50a050"/>
  <path d="M58 48 L58 44" stroke="#408040" stroke-width="2"/>
  <ellipse cx="58" cy="44" rx="2" ry="2" fill="#60b060"/>
  
  <!-- é ­é«® - æ£•è‰²é®‘ä¼¯é ­ -->
  <ellipse cx="32" cy="22" rx="14" ry="12" fill="#5a4030"/>
  <!-- é«®åž‹å±¤æ¬¡ -->
  <path d="M20 24 Q18 18 22 14 Q28 10 32 10 Q36 10 42 14 Q46 18 44 24" fill="#6a5040"/>
  <!-- é®‘ä¼¯é ­å…©å´ -->
  <ellipse cx="20" cy="30" rx="4" ry="8" fill="#5a4030"/>
  <ellipse cx="44" cy="30" rx="4" ry="8" fill="#5a4030"/>
  <!-- é«®çµ²ç´‹ç† -->
  <path d="M24 14 Q28 12 32 14" stroke="#7a6050" stroke-width="1.5" fill="none"/>
  <path d="M32 12 Q36 10 40 14" stroke="#7a6050" stroke-width="1.5" fill="none"/>
  
  <!-- è€³æœµ -->
  <ellipse cx="19" cy="32" rx="2" ry="3" fill="#f8e0d0"/>
  <ellipse cx="45" cy="32" rx="2" ry="3" fill="#f8e0d0"/>
  
  <!-- è‡‰ -->
  <ellipse cx="32" cy="32" rx="11" ry="10" fill="#f8e8e0"/>
  
  <!-- çœ¼ç› - æº«æŸ” -->
  <ellipse cx="28" cy="30" rx="3" ry="3" fill="#ffffff"/>
  <ellipse cx="36" cy="30" rx="3" ry="3" fill="#ffffff"/>
  <!-- æ£•è‰²çž³å­” -->
  <circle cx="28" cy="31" r="2" fill="#5a4030"/>
  <circle cx="36" cy="31" r="2" fill="#5a4030"/>
  <!-- é«˜å…‰ -->
  <circle cx="29" cy="30" r="0.8" fill="#ffffff"/>
  <circle cx="37" cy="30" r="0.8" fill="#ffffff"/>
  
  <!-- çœ‰æ¯› - æº«å’Œ -->
  <path d="M25 26 Q28 25 31 27" stroke="#5a4030" stroke-width="1.2" fill="none"/>
  <path d="M33 27 Q36 25 39 26" stroke="#5a4030" stroke-width="1.2" fill="none"/>
  
  <!-- è…®ç´… -->
  <ellipse cx="23" cy="34" rx="2.5" ry="1.5" fill="#f0b0a0" opacity="0.5"/>
  <ellipse cx="41" cy="34" rx="2.5" ry="1.5" fill="#f0b0a0" opacity="0.5"/>
  
  <!-- å˜´å·´ - æº«æš–å¾®ç¬‘ -->
  <path d="M29 38 Q32 41 35 38" stroke="#c08070" stroke-width="1.5" fill="none"/>
  <path d="M30 39 L34 39" stroke="#ffffff" stroke-width="1"/>
  
  <!-- ç±³è‰²é–‹è¡« -->
  <path d="M18 46 Q26 42 32 42 Q38 42 46 46 L50 64 L14 64 Z" fill="#c8b8a0"/>
  <!-- é–‹è¡«ç´‹ç† -->
  <path d="M20 50 L20 62" stroke="#b8a890" stroke-width="1.5"/>
  <path d="M44 50 L44 62" stroke="#b8a890" stroke-width="1.5"/>
  
  <!-- ç™½è‰²è¥¯è¡« -->
  <path d="M28 44 L32 48 L36 44" fill="#f8f4f0"/>
  <path d="M30 44 L32 46 L34 44" fill="#e8e4e0"/>
  
  <!-- åœè£™ï¼ˆæ ¼ç´‹ï¼‰ -->
  <path d="M24 52 Q32 50 40 52 L42 64 L22 64 Z" fill="#e8dcd0"/>
  <!-- æ ¼ç´‹ -->
  <path d="M26 54 L26 62" stroke="#d8ccc0" stroke-width="1"/>
  <path d="M30 52 L30 62" stroke="#d8ccc0" stroke-width="1"/>
  <path d="M34 52 L34 62" stroke="#d8ccc0" stroke-width="1"/>
  <path d="M38 54 L38 62" stroke="#d8ccc0" stroke-width="1"/>
  <path d="M24 56 Q32 54 40 56" stroke="#d8ccc0" stroke-width="1" fill="none"/>
  <path d="M23 60 Q32 58 41 60" stroke="#d8ccc0" stroke-width="1" fill="none"/>
  
  <!-- æ‰‹æ‹¿å‰ªè²¼æ¿ -->
  <rect x="12" y="48" width="8" height="12" fill="#8a7a60"/>
  <rect x="13" y="50" width="6" height="9" fill="#f8f8f0"/>
  <!-- å¤¾å­ -->
  <rect x="14" y="46" width="4" height="3" fill="#808080"/>
  <!-- æ¸…å–®å…§å®¹ -->
  <rect x="14" y="52" width="1.5" height="1.5" fill="#60c060"/>
  <rect x="16" y="52" width="2" height="1" fill="#a0a090"/>
  <rect x="14" y="55" width="1.5" height="1.5" fill="#60c060"/>
  <rect x="16" y="55" width="2" height="1" fill="#a0a090"/>
  
  <!-- æ‰‹ -->
  <ellipse cx="16" cy="54" rx="3" ry="2" fill="#f8e0d0"/>
  <ellipse cx="42" cy="52" rx="3" ry="2" fill="#f8e0d0"/>
</svg>
