<svg xmlns="http://www.w3.org/2000/svg" viewBox="0 0 64 64">
  <!-- ç ”ç ” - ç ”ç©¶å“¡ ðŸ“š åƒç´ é¢¨æ ¼ -->
  <!-- åƒè€ƒï¼šäº‚é«® + çœ¼é¡ + èŠ±ç´‹æ¯›è¡£ + æ›¸å † + ç‡ˆæ³¡ -->
  
  <!-- èƒŒæ™¯ -->
  <rect width="64" height="64" fill="#f8f4f0"/>
  
  <!-- ç¨‹å¼ç¢¼æ–‡ä»¶ï¼ˆå·¦ä¸Šï¼‰ -->
  <rect x="2" y="2" width="12" height="14" rx="1" fill="#2a3a4a"/>
  <rect x="3" y="4" width="4" height="1" fill="#60a0c0"/>
  <rect x="4" y="6" width="6" height="1" fill="#80c080"/>
  <rect x="4" y="8" width="5" height="1" fill="#80c080"/>
  <rect x="3" y="10" width="7" height="1" fill="#60a0c0"/>
  <rect x="4" y="12" width="4" height="1" fill="#c0c0c0"/>
  
  <!-- ç­†è¨˜æ–‡ä»¶ -->
  <rect x="2" y="18" width="10" height="12" rx="1" fill="#f8f8f0" stroke="#c0c0c0" stroke-width="0.5"/>
  <rect x="3" y="20" width="6" height="1" fill="#a0a0a0"/>
  <rect x="3" y="22" width="7" height="1" fill="#a0a0a0"/>
  <rect x="3" y="24" width="5" height="1" fill="#a0a0a0"/>
  <rect x="3" y="26" width="6" height="1" fill="#a0a0a0"/>
  
  <!-- ç‡ˆæ³¡ ðŸ’¡ -->
  <ellipse cx="44" cy="8" rx="5" ry="6" fill="#ffd040"/>
  <rect x="42" y="13" width="4" height="3" fill="#888"/>
  <!-- ç‡ˆæ³¡å…‰èŠ’ -->
  <path d="M44 2 L44 0" stroke="#ffd040" stroke-width="1"/>
  <path d="M38 4 L36 2" stroke="#ffd040" stroke-width="1"/>
  <path d="M50 4 L52 2" stroke="#ffd040" stroke-width="1"/>
  <path d="M36 8 L34 8" stroke="#ffd040" stroke-width="1"/>
  <path d="M52 8 L54 8" stroke="#ffd040" stroke-width="1"/>
  
  <!-- æ›¸æœ¬æ³¡æ³¡ -->
  <rect x="52" y="2" width="10" height="10" rx="1" fill="#ffffff" stroke="#c0c0c0" stroke-width="1"/>
  <rect x="54" y="4" width="6" height="6" fill="#f0e8d8" stroke="#8a7a60" stroke-width="0.5"/>
  <line x1="57" y1="4" x2="57" y2="10" stroke="#8a7a60" stroke-width="0.5"/>
  
  <!-- æ›¸å †ï¼ˆå·¦ä¸‹ï¼‰ -->
  <rect x="0" y="52" width="14" height="4" fill="#8a6040"/>
  <rect x="1" y="48" width="12" height="4" fill="#4a6080"/>
  <rect x="0" y="44" width="13" height="4" fill="#806040"/>
  <rect x="2" y="40" width="10" height="4" fill="#607060"/>
  
  <!-- æ›¸å †ï¼ˆå³ä¸‹ï¼‰ -->
  <rect x="50" y="54" width="14" height="4" fill="#6a5040"/>
  <rect x="52" y="50" width="12" height="4" fill="#506080"/>
  <rect x="51" y="46" width="13" height="4" fill="#806858"/>
  
  <!-- é ­é«® - äº‚äº‚çš„æ©„æ¬–æ£•è‰² -->
  <ellipse cx="32" cy="24" rx="14" ry="12" fill="#7a7050"/>
  <!-- äº‚ç¿¹çš„é«®çµ² -->
  <path d="M20 20 Q16 14 20 10 Q24 14 22 20" fill="#8a8060"/>
  <path d="M26 16 Q28 8 34 12 Q32 18 28 18" fill="#7a7050"/>
  <path d="M36 14 Q42 6 46 14 Q42 16 38 16" fill="#8a8060"/>
  <path d="M42 18 Q48 12 48 20 Q44 20 42 22" fill="#7a7050"/>
  <path d="M24 14 Q22 8 28 10 Q26 16 24 18" fill="#6a6040"/>
  <!-- é«®çµ²ç´‹ç† -->
  <path d="M22 16 Q26 12 30 16" stroke="#9a9070" stroke-width="1.5" fill="none"/>
  <path d="M34 12 Q38 8 42 14" stroke="#9a9070" stroke-width="1.5" fill="none"/>
  
  <!-- è€³æœµ -->
  <ellipse cx="18" cy="34" rx="2" ry="3" fill="#f0d8c8"/>
  <ellipse cx="46" cy="34" rx="2" ry="3" fill="#f0d8c8"/>
  
  <!-- è‡‰ -->
  <ellipse cx="32" cy="34" rx="12" ry="10" fill="#f5e0d0"/>
  
  <!-- çœ¼é¡æ¡† -->
  <rect x="23" y="30" width="8" height="6" rx="1" fill="none" stroke="#2a2a2a" stroke-width="1.5"/>
  <rect x="33" y="30" width="8" height="6" rx="1" fill="none" stroke="#2a2a2a" stroke-width="1.5"/>
  <line x1="31" y1="33" x2="33" y2="33" stroke="#2a2a2a" stroke-width="1.5"/>
  <line x1="23" y1="33" x2="20" y2="32" stroke="#2a2a2a" stroke-width="1"/>
  <line x1="41" y1="33" x2="44" y2="32" stroke="#2a2a2a" stroke-width="1"/>
  
  <!-- çœ¼ç› - ç•¥å¸¶ç–²å€¦ä½†å°ˆæ³¨ -->
  <ellipse cx="27" cy="33" rx="2.5" ry="2" fill="#ffffff"/>
  <ellipse cx="37" cy="33" rx="2.5" ry="2" fill="#ffffff"/>
  <circle cx="27" cy="33" r="1.5" fill="#5a5040"/>
  <circle cx="37" cy="33" r="1.5" fill="#5a5040"/>
  <circle cx="28" cy="32" r="0.5" fill="#ffffff"/>
  <circle cx="38" cy="32" r="0.5" fill="#ffffff"/>
  
  <!-- çœ¼è¢‹ -->
  <path d="M24 36 Q27 37 30 36" stroke="#e0c8b8" stroke-width="0.8" fill="none"/>
  <path d="M34 36 Q37 37 40 36" stroke="#e0c8b8" stroke-width="0.8" fill="none"/>
  
  <!-- çœ‰æ¯› - æ€è€ƒçšºçœ‰ -->
  <path d="M24 28 Q27 27 30 29" stroke="#5a5040" stroke-width="1.5" fill="none"/>
  <path d="M34 29 Q37 27 40 28" stroke="#5a5040" stroke-width="1.5" fill="none"/>
  
  <!-- å˜´å·´ - å°ˆæ³¨æŠ¿å˜´ -->
  <path d="M29 40 Q32 41 35 40" stroke="#c0a090" stroke-width="1.5" fill="none"/>
  
  <!-- èŠ±ç´‹æ¯›è¡£ -->
  <path d="M16 48 Q24 44 32 44 Q40 44 48 48 L52 64 L12 64 Z" fill="#6a5848"/>
  <!-- æ¯›è¡£èŠ±ç´‹ - è—ç¶ è‰²åœ–é¨° -->
  <path d="M16 54 Q32 50 48 54" stroke="#60a0a0" stroke-width="2" fill="none"/>
  <path d="M14 58 Q32 54 50 58" stroke="#80b8b0" stroke-width="1.5" fill="none"/>
  <!-- è±å½¢åœ–æ¡ˆ -->
  <polygon points="24,56 26,54 28,56 26,58" fill="#c09060"/>
  <polygon points="32,54 34,52 36,54 34,56" fill="#60a0a0"/>
  <polygon points="40,56 42,54 44,56 42,58" fill="#c09060"/>
  
  <!-- è¥¯è¡«é ˜å£ -->
  <path d="M28 44 L32 48 L36 44" fill="#d8e0e8"/>
  
  <!-- æ‰˜è…®çš„æ‰‹ -->
  <ellipse cx="42" cy="42" rx="4" ry="3" fill="#f0d8c8"/>
  
  <!-- å’–å•¡æ¯ -->
  <rect x="18" y="56" width="6" height="7" rx="1" fill="#f0f0f0"/>
  <ellipse cx="21" cy="56" rx="3" ry="1" fill="#e8e8e8"/>
  <path d="M24 58 Q26 60 24 62" stroke="#e0e0e0" stroke-width="1.5" fill="none"/>
  <!-- å’–å•¡ -->
  <ellipse cx="21" cy="57" rx="2" ry="0.8" fill="#6a4020"/>
  <!-- è’¸æ°£ -->
  <path d="M20 54 Q21 52 20 50" stroke="#c0c0c0" stroke-width="0.8" fill="none"/>
  <path d="M22 53 Q23 51 22 49" stroke="#c0c0c0" stroke-width="0.8" fill="none"/>
</svg>
